#N canvas 129 77 864 813 10;
#X obj 155 117 inlet~;
#X obj 351 492 outlet~;
#X obj 155 176 VFX-Tremolo 0 0;
#X obj 155 324 VFX-RingModulator 0 0;
#X obj 351 176 Knob~;
#X obj 351 324 Knob~;
#X obj 386 154 bng 15 250 50 0 empty empty RESET -40 7 0 10 -262144
-1 -1;
#X obj 428 120 loadbang;
#X obj 386 120 inlet;
#X connect 0 0 2 0;
#X connect 0 0 4 0;
#X connect 2 0 4 1;
#X connect 3 0 5 1;
#X connect 4 0 3 0;
#X connect 4 0 5 0;
#X connect 5 0 1 0;
#X connect 6 0 4 2;
#X connect 6 0 2 3;
#X connect 6 0 3 3;
#X connect 6 0 5 2;
#X connect 7 0 6 0;
#X connect 8 0 6 0;
#X coords 0 -1 1 1 255 320 1 150 150;
