#N canvas 809 198 650 613 10;
#X obj 386 68 loadbang;
#X obj 104 69 inlet~;
#X obj 332 68 inlet;
#X obj 298 450 outlet~;
#X obj 104 129 VFX-FrequencyShifter 0;
#X obj 103 206 VFX-Vibrato 0 0 0;
#X obj 298 206 Knob~;
#X obj 298 128 Knob~;
#X obj 332 103 bng 15 250 50 0 empty empty RESET -35 7 0 10 -262144
-1 -1;
#X connect 0 0 8 0;
#X connect 1 0 4 0;
#X connect 1 0 7 0;
#X connect 2 0 8 0;
#X connect 4 0 7 1;
#X connect 5 0 6 1;
#X connect 6 0 3 0;
#X connect 7 0 6 0;
#X connect 7 0 5 0;
#X connect 8 0 7 2;
#X connect 8 0 6 2;
#X connect 8 0 4 3;
#X connect 8 0 5 4;
#X coords 0 -1 1 1 250 330 1 100 100;
