#N canvas 500 197 480 655 10;
#X obj 68 64 bng 15 250 50 0 empty empty empty 17 7 0 10 -262144 -1
-1;
#X obj -1 96 delay 500;
#X msg -1 131 start;
#X msg 68 132 open speech.wav;
#X obj 68 185 readsf~;
#X obj 155 670 output~;
#X obj 249 671 wsprobe~;
#X msg 245 222 0;
#X obj 248 256 hsl 128 15 -1000 1000 0 0 empty empty Frequency_Shift
-2 -8 0 10 -262144 -45076 -1 6350 1;
#X floatatom 245 288 5 0 0 0 - - -;
#X obj 245 319 sig~;
#X obj 246 470 phasor~;
#X obj 294 501 +~ -0.25;
#X obj 246 533 cos~;
#X obj 294 533 cos~;
#X obj 178 533 hilbert~;
#X obj 178 568 *~;
#X obj 223 568 *~;
#X obj 178 603 -~;
#X obj 294 290 LFO~;
#X obj 246 438 +~;
#X obj 343 124 bng 15 250 50 0 empty empty empty 17 7 0 10 -262144
-1 -1;
#X obj 175 157 FileOpen;
#X connect 0 0 1 0;
#X connect 0 0 3 0;
#X connect 1 0 2 0;
#X connect 2 0 4 0;
#X connect 3 0 4 0;
#X connect 4 1 0 0;
#X connect 7 0 8 0;
#X connect 8 0 9 0;
#X connect 9 0 10 0;
#X connect 10 0 20 0;
#X connect 11 0 13 0;
#X connect 11 0 12 0;
#X connect 12 0 14 0;
#X connect 13 0 16 1;
#X connect 14 0 17 1;
#X connect 15 0 16 0;
#X connect 15 1 17 0;
#X connect 16 0 18 0;
#X connect 17 0 18 1;
#X connect 18 0 5 0;
#X connect 18 0 5 1;
#X connect 18 0 6 0;
#X connect 19 2 20 1;
#X connect 20 0 11 0;
#X connect 22 0 15 0;
