#N canvas 559 74 986 611 10;
#X obj 209 255 hsl 128 15 0 50 0 0 empty empty SPEED -2 -8 0 10 -262144
-1 -1 0 1;
#X floatatom 346 255 5 0 0 0 - - -;
#X floatatom 345 289 5 0 0 0 - - -;
#X obj 285 205 vradio 15 1 0 2 empty empty empty 0 -8 0 10 -262144
-1 -1 0;
#X text 303 204 SINE;
#X text 303 220 SQUARE;
#X obj 363 206 bng 15 250 50 0 empty empty RESET -12 25 0 10 -262144
-1 -1;
#X obj 468 446 *~;
#X obj 209 290 hsl 128 15 0 1 0 0 empty empty DEPTH -2 -8 0 10 -262144
-1 -1 0 1;
#X obj 411 293 osc~;
#X obj 159 233 f \$1;
#X obj 160 271 f \$2;
#X obj 468 408 clip~ -1 1;
#X msg 431 221 0;
#X obj 457 269 route 0 1;
#X obj 200 175 inlet;
#X obj 259 174 inlet;
#X obj 361 172 inlet;
#X obj 297 379 outlet;
#X obj 349 378 outlet;
#X obj 470 479 outlet~;
#X obj 409 177 loadbang;
#X obj 467 371 *~;
#X msg 459 297 1;
#X msg 501 298 1e+07;
#X floatatom 483 331 5 0 0 0 - - -;
#X text 199 156 SPEED;
#X text 297 398 SPEED;
#X text 348 395 DEPTH;
#X text 259 154 DEPTH;
#X text 360 152 RESET;
#X text 472 499 SIGNAL;
#X floatatom 432 245 5 0 0 0 - - -;
#X connect 0 0 1 0;
#X connect 1 0 18 0;
#X connect 1 0 9 0;
#X connect 1 0 13 0;
#X connect 2 0 19 0;
#X connect 2 0 7 1;
#X connect 3 0 14 0;
#X connect 6 0 10 0;
#X connect 6 0 11 0;
#X connect 6 0 3 0;
#X connect 6 0 13 0;
#X connect 7 0 20 0;
#X connect 8 0 2 0;
#X connect 9 0 22 0;
#X connect 10 0 0 0;
#X connect 11 0 8 0;
#X connect 12 0 7 0;
#X connect 13 0 32 0;
#X connect 14 0 23 0;
#X connect 14 1 24 0;
#X connect 15 0 1 0;
#X connect 16 0 2 0;
#X connect 17 0 6 0;
#X connect 21 0 6 0;
#X connect 22 0 12 0;
#X connect 23 0 25 0;
#X connect 24 0 25 0;
#X connect 25 0 22 1;
#X connect 32 0 9 1;
#X coords 0 -1 1 1 183 110 1 200 200;
