#N canvas 559 74 986 611 10;
#X obj 209 255 hsl 128 15 0 50 0 0 empty empty SPEED -2 -8 0 10 -262144
-1 -1 0 1;
#X floatatom 351 255 5 0 0 0 - - -;
#X floatatom 351 289 5 0 0 0 - - -;
#X obj 302 204 vradio 15 1 0 2 empty empty empty 0 -8 0 10 -262144
-1 -1 0;
#X text 320 203 SINE;
#X text 320 219 SQUARE;
#X obj 379 204 bng 15 250 50 0 empty empty RESET -12 25 0 10 -262144
-1 -1;
#X obj 670 392 *~;
#X obj 209 290 hsl 128 15 0 1 0 0 empty empty DEPTH -2 -8 0 10 -262144
-1 -1 0 1;
#X obj 670 273 osc~;
#X obj 135 227 f \$1;
#X obj 139 274 f \$2;
#X obj 670 354 clip~ -1 1;
#X msg 691 185 0;
#X obj 549 237 route 0 1;
#X obj 813 169 == 0;
#X obj 131 105 inlet;
#X obj 251 105 inlet;
#X obj 378 123 inlet;
#X obj 351 455 outlet;
#X obj 480 456 outlet;
#X obj 672 425 outlet~;
#X obj 422 167 loadbang;
#X obj 568 278 f 1;
#X obj 615 275 f 1e+07;
#X obj 669 317 *~;
#X obj 131 128 send \$0-speed;
#X obj 251 129 send \$0-depth;
#X obj 296 170 receive \$0-reset;
#X obj 93 200 receive \$0-reset;
#X obj 412 218 send \$0-reset;
#X obj 410 247 receive \$0-speed;
#X obj 408 272 send \$0-frequency;
#X obj 408 320 receive \$0-depth;
#X obj 409 345 send \$0-amplitude;
#X obj 351 431 receive \$0-frequency;
#X obj 481 431 receive \$0-amplitude;
#X obj 709 376 receive \$0-amplitude;
#X obj 813 144 receive \$0-frequency;
#X obj 700 156 receive \$0-reset;
#X obj 671 127 receive \$0-frequency;
#X connect 0 0 1 0;
#X connect 1 0 32 0;
#X connect 2 0 34 0;
#X connect 3 0 14 0;
#X connect 6 0 30 0;
#X connect 7 0 21 0;
#X connect 8 0 2 0;
#X connect 9 0 25 0;
#X connect 10 0 0 0;
#X connect 11 0 8 0;
#X connect 12 0 7 0;
#X connect 13 0 9 1;
#X connect 14 0 23 0;
#X connect 14 1 24 0;
#X connect 15 0 13 0;
#X connect 16 0 26 0;
#X connect 17 0 27 0;
#X connect 18 0 6 0;
#X connect 22 0 6 0;
#X connect 23 0 25 1;
#X connect 24 0 25 1;
#X connect 25 0 12 0;
#X connect 28 0 3 0;
#X connect 29 0 10 0;
#X connect 29 0 11 0;
#X connect 31 0 1 0;
#X connect 33 0 2 0;
#X connect 35 0 19 0;
#X connect 36 0 20 0;
#X connect 37 0 7 1;
#X connect 38 0 15 0;
#X connect 39 0 13 0;
#X connect 40 0 9 0;
#X coords 0 -1 1 1 200 110 1 200 200;
