#N canvas 698 269 917 566 10;
#X obj 209 255 hsl 128 15 0 50 0 0 empty empty SPEED -2 -8 0 10 -262144
-1 -1 12700 1;
#X floatatom 351 255 5 0 0 0 - - -;
#X floatatom 351 289 5 0 0 0 - - -;
#X obj 302 204 vradio 15 1 0 2 empty empty empty 0 -8 0 10 -262144
-1 -1 0;
#X text 320 203 SINE;
#X text 320 219 SQUARE;
#X obj 379 204 bng 15 250 50 0 empty empty RESET -12 25 0 10 -262144
-1 -1;
#X obj 607 427 *~;
#X obj 209 290 hsl 128 15 0 1 0 0 empty empty DEPTH -2 -8 0 10 -262144
-1 -1 12700 1;
#X obj 607 353 osc~;
#X obj 135 227 f \$1;
#X obj 139 274 f \$2;
#X obj 607 382 clip~ -1 1;
#X msg 647 336 0;
#X obj 412 218 send reset;
#X obj 109 201 receive reset;
#X obj 296 171 receive reset;
#X obj 613 245 route 0 1;
#X msg 633 290 1;
#X obj 409 345 send depth;
#X obj 677 314 receive reset;
#X obj 646 412 receive depth;
#X obj 769 320 == 0;
#X obj 768 295 receive frequency;
#X obj 131 105 inlet;
#X obj 251 105 inlet;
#X obj 378 123 inlet;
#X obj 351 455 outlet;
#X obj 480 456 outlet;
#X obj 351 431 receive frequency;
#X obj 480 431 receive depth;
#X obj 131 129 send speed_input;
#X obj 251 130 send depth_input;
#X obj 408 320 receive depth_input;
#X obj 409 247 receive speed_input;
#X obj 408 272 send frequency;
#X obj 510 290 receive frequency;
#X obj 607 323 *;
#X msg 670 290 10000;
#X obj 609 460 outlet~;
#X connect 0 0 1 0;
#X connect 1 0 35 0;
#X connect 2 0 19 0;
#X connect 3 0 17 0;
#X connect 6 0 14 0;
#X connect 7 0 39 0;
#X connect 8 0 2 0;
#X connect 9 0 12 0;
#X connect 10 0 0 0;
#X connect 11 0 8 0;
#X connect 12 0 7 0;
#X connect 13 0 9 1;
#X connect 15 0 10 0;
#X connect 15 0 11 0;
#X connect 16 0 3 0;
#X connect 17 0 18 0;
#X connect 17 1 38 0;
#X connect 18 0 37 1;
#X connect 20 0 13 0;
#X connect 21 0 7 1;
#X connect 22 0 13 0;
#X connect 23 0 22 0;
#X connect 24 0 31 0;
#X connect 25 0 32 0;
#X connect 26 0 6 0;
#X connect 29 0 27 0;
#X connect 30 0 28 0;
#X connect 33 0 2 0;
#X connect 34 0 1 0;
#X connect 36 0 37 0;
#X connect 37 0 9 0;
#X connect 38 0 37 1;
#X coords 0 -1 1 1 200 110 1 200 200;
