#N canvas 565 191 986 611 10;
#X obj 209 255 hsl 128 15 0 50 0 0 empty empty SPEED -2 -8 0 10 -262144
-1 -1 12700 1;
#X floatatom 351 255 5 0 0 0 - - -;
#X floatatom 351 289 5 0 0 0 - - -;
#X obj 302 204 vradio 15 1 0 2 empty empty empty 0 -8 0 10 -262144
-1 -1 0;
#X text 320 203 SINE;
#X text 320 219 SQUARE;
#X obj 379 204 bng 15 250 50 0 empty empty RESET -12 25 0 10 -262144
-1 -1;
#X obj 670 392 *~;
#X obj 209 290 hsl 128 15 0 1 0 0 empty empty DEPTH -2 -8 0 10 -262144
-1 -1 12700 1;
#X obj 670 273 osc~;
#X obj 135 227 f \$1;
#X obj 139 274 f \$2;
#X obj 670 354 clip~ -1 1;
#X msg 691 185 0;
#X obj 412 218 send reset;
#X obj 109 201 receive reset;
#X obj 296 171 receive reset;
#X obj 549 237 route 0 1;
#X obj 721 163 receive reset;
#X obj 813 169 == 0;
#X obj 812 144 receive frequency;
#X obj 131 105 inlet;
#X obj 251 105 inlet;
#X obj 378 123 inlet;
#X obj 351 455 outlet;
#X obj 480 456 outlet;
#X obj 351 431 receive frequency;
#X obj 408 272 send frequency;
#X obj 671 127 receive frequency;
#X obj 672 425 outlet~;
#X obj 422 167 loadbang;
#X obj 568 278 f 1;
#X obj 615 275 f 1e+07;
#X obj 669 317 *~;
#X obj 409 345 send amplitude;
#X obj 480 431 receive amplitude;
#X obj 709 377 receive amplitude;
#X obj 131 129 send speed;
#X obj 409 247 receive speed;
#X obj 251 130 send depth;
#X obj 408 320 receive depth;
#X connect 0 0 1 0;
#X connect 1 0 27 0;
#X connect 2 0 34 0;
#X connect 3 0 17 0;
#X connect 6 0 14 0;
#X connect 7 0 29 0;
#X connect 8 0 2 0;
#X connect 9 0 33 0;
#X connect 10 0 0 0;
#X connect 11 0 8 0;
#X connect 12 0 7 0;
#X connect 13 0 9 1;
#X connect 15 0 10 0;
#X connect 15 0 11 0;
#X connect 16 0 3 0;
#X connect 17 0 31 0;
#X connect 17 1 32 0;
#X connect 18 0 13 0;
#X connect 19 0 13 0;
#X connect 20 0 19 0;
#X connect 21 0 37 0;
#X connect 22 0 39 0;
#X connect 23 0 6 0;
#X connect 26 0 24 0;
#X connect 28 0 9 0;
#X connect 30 0 6 0;
#X connect 31 0 33 1;
#X connect 32 0 33 1;
#X connect 33 0 12 0;
#X connect 35 0 25 0;
#X connect 36 0 7 1;
#X connect 38 0 1 0;
#X connect 40 0 2 0;
#X coords 0 -1 1 1 200 110 1 200 200;
