#N canvas 576 130 747 714 10;
#X obj 44 76 inlet~;
#X obj 236 102 bng 15 250 50 0 empty empty empty 17 7 0 10 -262144
-1 -1;
#X obj 85 435 outlet~;
#X obj 42 337 *~;
#X obj 137 336 *~;
#X obj 85 387 +~;
#X msg 59 236 1;
#X obj 58 309 -;
#X obj 144 73 inlet~;
#X obj 252 35 loadbang;
#X msg 208 62 0;
#X obj 104 102 hsl 128 15 0 1 0 0 empty empty empty -2 -8 0 10 -262144
-1 -1 0 1;
#X floatatom 96 274 5 0 0 0 - - -;
#X floatatom 57 269 5 0 0 0 - - -;
#X connect 0 0 3 0;
#X connect 1 0 10 0;
#X connect 1 0 6 0;
#X connect 1 0 12 0;
#X connect 3 0 5 0;
#X connect 4 0 5 1;
#X connect 5 0 2 0;
#X connect 6 0 13 0;
#X connect 7 0 3 1;
#X connect 8 0 4 0;
#X connect 9 0 1 0;
#X connect 10 0 11 0;
#X connect 11 0 12 0;
#X connect 11 0 6 0;
#X connect 12 0 7 1;
#X connect 12 0 4 1;
#X connect 13 0 7 0;
#X coords 0 -1 1 1 155 20 2 100 100;
