#N canvas 576 130 747 714 10;
#X obj 44 76 inlet~;
#X obj 103 103 bng 15 250 50 0 empty empty empty 17 7 0 10 -262144
-1 -1;
#X obj 85 435 outlet~;
#X obj 42 337 *~;
#X obj 137 336 *~;
#X obj 85 387 +~;
#X msg 58 262 1;
#X obj 58 309 -;
#X obj 144 73 inlet~;
#X obj 119 36 loadbang;
#X msg 65 112 0;
#X obj 103 122 vsl 15 128 0 1 0 0 dimensions empty empty 0 -9 0 10
-262144 -1 -1 0 1;
#X floatatom 97 290 5 0 0 0 - - -;
#X floatatom 57 286 5 0 0 0 - - -;
#X connect 0 0 3 0;
#X connect 1 0 10 0;
#X connect 1 0 6 0;
#X connect 1 0 12 0;
#X connect 3 0 5 0;
#X connect 4 0 5 1;
#X connect 5 0 2 0;
#X connect 6 0 13 0;
#X connect 7 0 3 1;
#X connect 8 0 4 0;
#X connect 9 0 1 0;
#X connect 10 0 11 0;
#X connect 11 0 12 0;
#X connect 11 0 6 0;
#X connect 12 0 7 1;
#X connect 12 0 4 1;
#X connect 13 0 7 0;
#X coords 0 -1 1 1 20 155 2 100 100;
