#N canvas 25 38 1100 781 10;
#X obj 243 38 VFX-RingModulator~;
#X obj 30 210 VFX-FrequencyShifter~;
#X obj 465 38 VFX-Tremolo~;
#X obj 241 210 VFX-Vibrato~;
#X obj 33 38 LFO~ 50 0.5;
#X obj -41 -143 loadbang;
#X obj -41 -108 bng 15 250 50 0 empty empty empty 17 7 0 10 -262144
-1 -1;
#X obj -110 -76 delay 500;
#X msg -110 -41 start;
#X msg -41 -40 open speech.wav;
#X obj -41 13 readsf~;
#X obj 311 468 wsprobe~;
#X obj 237 469 output~;
#X connect 3 0 11 0;
#X connect 3 0 12 0;
#X connect 3 0 12 1;
#X connect 5 0 6 0;
#X connect 6 0 7 0;
#X connect 6 0 9 0;
#X connect 7 0 8 0;
#X connect 8 0 10 0;
#X connect 9 0 10 0;
#X connect 10 0 3 0;
#X connect 10 1 6 0;
