#N canvas 20 23 1109 896 10;
#X obj 684 359 VFX-Delay~ 20;
#X obj 710 166 VFX-Reverberation~ 10 0.5;
#X obj 163 355 VFX-Vibrato~ 50 0.5 100;
#X obj 439 360 VFX-FrequencyShifter~ 100;
#X obj 162 167 VFX-Tremolo~ 25 0.5;
#X obj 436 165 VFX-RingModulator~ 25 0.5;
#X obj 649 551 output~;
#X obj 722 530 wsprobe~;
#X obj 85 -45 loadbang;
#X obj 85 -10 bng 15 250 50 0 empty empty empty 17 7 0 10 -262144 -1
-1;
#X obj 16 22 delay 500;
#X msg 16 57 start;
#X msg 85 58 open speech.wav;
#X obj 85 111 readsf~;
#X obj 124 166 mix~;
#X obj 401 165 mix~;
#X obj 674 164 mix~;
#X obj 124 354 mix~;
#X obj 401 357 mix~;
#X obj 647 359 mix~;
#X connect 0 0 19 1;
#X connect 1 0 16 1;
#X connect 2 0 17 1;
#X connect 3 0 18 1;
#X connect 4 0 14 1;
#X connect 5 0 15 1;
#X connect 8 0 9 0;
#X connect 9 0 10 0;
#X connect 9 0 12 0;
#X connect 10 0 11 0;
#X connect 11 0 13 0;
#X connect 12 0 13 0;
#X connect 13 0 4 0;
#X connect 13 0 14 0;
#X connect 13 1 9 0;
#X connect 14 0 15 0;
#X connect 14 0 5 0;
#X connect 15 0 16 0;
#X connect 15 0 1 0;
#X connect 16 0 17 0;
#X connect 16 0 2 0;
#X connect 17 0 18 0;
#X connect 17 0 3 0;
#X connect 18 0 19 0;
#X connect 18 0 0 0;
#X connect 19 0 7 0;
#X connect 19 0 6 0;
#X connect 19 0 6 1;
