#N canvas 0 22 568 642 10;
#X obj 86 78 VFX-Delay 50;
#X obj 86 242 VFX-Flanger 10 0.4 5;
#X obj 86 145 VFX-Reverberation 10 10;
#X obj 281 77 Knob~;
#X obj 281 144 Knob~;
#X obj 281 241 Knob~;
#X obj 316 54 bng 15 250 50 0 empty empty RESET -40 7 0 10 -262144
-1 -1;
#X obj 86 22 inlet~;
#X obj 281 495 outlet~;
#X connect 0 0 3 1;
#X connect 1 0 5 1;
#X connect 2 0 4 1;
#X connect 3 0 4 0;
#X connect 3 0 2 0;
#X connect 4 0 5 0;
#X connect 4 0 1 0;
#X connect 5 0 8 0;
#X connect 6 0 3 2;
#X connect 6 0 4 2;
#X connect 6 0 5 2;
#X connect 6 0 2 3;
#X connect 6 0 0 3;
#X connect 6 0 1 4;
#X connect 7 0 0 0;
#X connect 7 0 3 0;
#X coords 0 -1 1 1 255 420 1 80 50;
