#N canvas 513 162 618 599 10;
#X obj 107 126 VFX-LowpassFilter;
#X obj 107 209 VFX-HighpassFilter;
#X obj 107 291 VFX-BandpassFilter;
#X obj 332 106 bng 15 250 50 0 empty empty empty 17 7 0 10 -262144
-1 -1;
#X text 296 105 RESET;
#X obj 332 76 inlet;
#X obj 100 75 inlet~;
#X obj 101 413 outlet~;
#X obj 299 291 Knob~;
#X obj 298 209 Knob~;
#X obj 298 126 Knob~;
#X connect 0 0 10 1;
#X connect 1 0 9 1;
#X connect 2 0 8 1;
#X connect 3 0 0 2;
#X connect 3 0 1 2;
#X connect 3 0 2 3;
#X connect 3 0 8 2;
#X connect 3 0 9 2;
#X connect 3 0 10 2;
#X connect 5 0 3 0;
#X connect 6 0 0 0;
#X connect 6 0 10 0;
#X connect 8 0 7 0;
#X connect 9 0 2 0;
#X connect 9 0 8 0;
#X connect 10 0 1 0;
#X connect 10 0 9 0;
#X coords 0 -1 1 1 254 303 1 100 100;
