#N canvas 895 23 568 642 10;
#X obj 316 54 bng 15 250 50 0 empty empty empty -40 7 0 10 -262144
-1 -1;
#X obj 86 22 inlet~;
#X obj 281 495 outlet~;
#X text 281 53 RESET;
#X obj 86 145 VFX-Reverberation;
#X obj 86 78 VFX-Delay;
#X obj 86 242 VFX-Flanger;
#X obj 347 48 loadbang;
#X obj 312 19 inlet;
#X obj 281 77 Knob~;
#X obj 281 144 Knob~;
#X obj 281 241 Knob~;
#X connect 0 0 4 3;
#X connect 0 0 5 3;
#X connect 0 0 6 4;
#X connect 0 0 9 3;
#X connect 0 0 10 3;
#X connect 0 0 11 3;
#X connect 1 0 5 0;
#X connect 1 0 9 0;
#X connect 4 0 10 1;
#X connect 5 0 9 1;
#X connect 6 0 11 1;
#X connect 7 0 0 0;
#X connect 8 0 0 0;
#X connect 9 0 4 0;
#X connect 9 0 10 0;
#X connect 10 0 6 0;
#X connect 10 0 11 0;
#X connect 11 0 2 0;
#X coords 0 -1 1 1 255 420 1 80 50;
