#N canvas 562 179 480 655 10;
#X obj 108 151 hsl 128 15 -1000 1000 0 0 empty empty FREQUENCY_SHIFT
-2 -8 0 10 -262144 -45076 -1 9525 1;
#X obj 147 181 sig~;
#X obj 95 238 phasor~;
#X obj 152 263 +~ -0.25;
#X obj 104 295 cos~;
#X obj 152 295 cos~;
#X obj 36 295 hilbert~;
#X obj 36 330 *~;
#X obj 81 330 *~;
#X obj 36 365 -~;
#X obj 36 406 outlet~;
#X obj 35 47 inlet~;
#X obj 122 40 inlet;
#X obj 258 106 bng 15 250 50 0 empty empty RESET -12 25 0 10 -262144
-1 -1;
#X obj 355 37 inlet;
#X obj 374 67 loadbang;
#X obj 66 127 f \$1;
#X floatatom 243 151 5 0 0 0 - - -;
#X text 31 30 SIGNAL;
#X text 356 20 RESET;
#X text 89 22 FREQUENCY SHIFT;
#X text 35 426 SIGNAL;
#X obj 222 40 inlet~;
#X text 206 20 FREQUENCY SHIFT SIGNAL;
#X obj 112 208 +~;
#X connect 0 0 17 0;
#X connect 1 0 24 0;
#X connect 2 0 4 0;
#X connect 2 0 3 0;
#X connect 3 0 5 0;
#X connect 4 0 7 1;
#X connect 5 0 8 1;
#X connect 6 0 7 0;
#X connect 6 1 8 0;
#X connect 7 0 9 0;
#X connect 8 0 9 1;
#X connect 9 0 10 0;
#X connect 11 0 6 0;
#X connect 12 0 17 0;
#X connect 13 0 16 0;
#X connect 14 0 13 0;
#X connect 15 0 13 0;
#X connect 16 0 0 0;
#X connect 17 0 1 0;
#X connect 22 0 24 1;
#X connect 24 0 2 0;
#X coords 0 -1 1 1 180 70 1 100 100;
