#N canvas 412 184 652 524 10;
#X obj 20 58 inlet~;
#X obj 105 330 outlet~;
#X obj 85 60 inlet;
#X obj 138 59 inlet;
#X obj 214 54 inlet;
#X obj 273 104 bng 15 250 50 0 empty empty empty 17 7 0 10 -262144
-1 -1;
#X obj 336 105 loadbang;
#X obj 105 125 LFO~ \$1 \$2;
#X text 20 39 SIGNAL;
#X text 80 42 SPEED;
#X text 133 40 DEPTH;
#X text 180 39 FREQUENCY SHIFT;
#X text 107 346 SIGNAL;
#X obj 297 68 inlet;
#X text 294 51 RESET;
#X obj 106 241 VFX-FrequencyShifter \$3;
#X connect 0 0 15 0;
#X connect 2 0 7 0;
#X connect 3 0 7 1;
#X connect 4 0 15 1;
#X connect 5 0 7 2;
#X connect 6 0 5 0;
#X connect 7 2 15 2;
#X connect 13 0 5 0;
#X connect 15 0 1 0;
#X coords 0 -1 1 1 192 220 1 100 100;
