#N canvas 381 127 480 655 10;
#X obj 106 246 sig~;
#X obj 106 269 +~;
#X obj 106 303 *~ 0.5;
#X obj 91 340 *~;
#X obj 90 75 inlet~;
#X obj 91 379 outlet~;
#X obj 105 127 LFO~;
#X connect 0 0 1 0;
#X connect 1 0 2 0;
#X connect 2 0 3 1;
#X connect 3 0 5 0;
#X connect 4 0 3 0;
#X connect 6 1 0 0;
#X connect 6 2 1 1;
#X coords 0 -1 1 1 210 140 1 100 100;
