#N canvas 385 110 480 655 10;
#X obj 114 150 hsl 128 15 -1000 1000 0 0 empty empty FREQUENCY_SHIFT
-2 -8 0 10 -262144 -45076 -1 0 1;
#X obj 104 238 sig~;
#X obj 104 272 phasor~;
#X obj 152 303 +~ -0.25;
#X obj 104 335 cos~;
#X obj 152 335 cos~;
#X obj 36 335 hilbert~;
#X obj 36 370 *~;
#X obj 81 370 *~;
#X obj 36 405 -~;
#X obj 38 443 outlet~;
#X obj 35 2 inlet~;
#X obj 99 24 inlet;
#X obj 99 55 send frequency_shift;
#X obj 313 153 receive frequency_shift;
#X obj 278 105 bng 15 250 50 0 empty empty RESET -12 25 0 10 -262144
-1 -1;
#X obj 311 119 send reset;
#X obj 277 24 inlet;
#X obj 321 68 loadbang;
#X obj 55 148 f \$1;
#X obj 54 80 receive reset;
#X floatatom 256 150 5 -1000 1000 0 - - -;
#X connect 0 0 21 0;
#X connect 1 0 2 0;
#X connect 2 0 4 0;
#X connect 2 0 3 0;
#X connect 3 0 5 0;
#X connect 4 0 7 1;
#X connect 5 0 8 1;
#X connect 6 0 7 0;
#X connect 6 1 8 0;
#X connect 7 0 9 0;
#X connect 8 0 9 1;
#X connect 9 0 10 0;
#X connect 11 0 6 0;
#X connect 12 0 13 0;
#X connect 14 0 21 0;
#X connect 15 0 16 0;
#X connect 17 0 15 0;
#X connect 18 0 15 0;
#X connect 19 0 0 0;
#X connect 20 0 19 0;
#X connect 21 0 1 0;
#X coords 0 -1 1 1 200 70 1 100 100;
