#N canvas 676 174 578 655 10;
#X obj 104 77 delwrite~ delayline 1000;
#X obj 106 141 hsl 128 15 10 1000 1 0 empty empty DELAY -2 -8 0 10
-262144 -1 -1 0 1;
#X floatatom 103 169 5 0 0 0 - - -;
#X obj 103 200 sig~;
#X obj 103 232 vd~ delayline;
#X obj 88 269 +~;
#X obj 221 105 bng 15 250 50 0 empty empty RESET -12 25 0 10 -262144
-1 -1;
#X obj 220 24 inlet;
#X obj 264 68 loadbang;
#X msg 43 104 0;
#X obj 84 38 inlet~;
#X obj 88 301 outlet~;
#X connect 1 0 2 0;
#X connect 2 0 3 0;
#X connect 3 0 4 0;
#X connect 4 0 5 1;
#X connect 5 0 11 0;
#X connect 6 0 9 0;
#X connect 7 0 6 0;
#X connect 8 0 6 0;
#X connect 9 0 1 0;
#X connect 10 0 0 0;
#X connect 10 0 5 0;
#X coords 0 -1 1 1 140 60 1 100 100;
