#N canvas 585 273 451 529 10;
#X obj 108 154 hsl 128 15 0 10000 0 0 empty empty CENTRE_FREQUENCY
10 8 0 10 -262144 -1 -1 0 1;
#X obj 89 65 inlet~;
#X obj 85 254 outlet~;
#X obj 264 105 bng 15 250 50 0 empty empty RESET -12 25 0 10 -262144
-1 -1;
#X obj 56 128 f \$1;
#X obj 297 83 loadbang;
#X floatatom 245 153 5 0 0 0 - - -;
#X text 103 137 0Hz;
#X text 196 137 10000Hz;
#X obj 85 221 bp~;
#X obj 109 186 hsl 128 15 0 100 0 0 empty empty Q 60 8 0 10 -262144
-1 -1 0 1;
#X floatatom 246 186 5 0 0 0 - - -;
#X text 104 169 0Hz;
#X text 207 169 100Hz;
#X obj 55 165 f \$2;
#X text 91 47 INPUT;
#X obj 148 64 inlet;
#X obj 195 64 inlet;
#X obj 244 65 inlet;
#X text 148 32 CENTRE FREQ;
#X text 204 45 Q;
#X text 245 47 RESET;
#X text 87 274 SIGNAL;
#X connect 0 0 6 0;
#X connect 1 0 9 0;
#X connect 3 0 4 0;
#X connect 3 0 14 0;
#X connect 4 0 0 0;
#X connect 5 0 3 0;
#X connect 6 0 9 1;
#X connect 9 0 2 0;
#X connect 10 0 11 0;
#X connect 11 0 9 2;
#X connect 14 0 10 0;
#X connect 16 0 6 0;
#X connect 17 0 11 0;
#X connect 18 0 3 0;
#X coords 0 -1 1 1 185 105 1 100 100;
