#N canvas 279 224 553 656 10;
#X obj 106 246 sig~;
#X obj 106 269 +~;
#X obj 106 303 *~ 0.5;
#X obj 91 340 *~;
#X obj 31 62 inlet~;
#X obj 91 379 outlet~;
#X obj 105 127 LFO~;
#X obj 106 63 inlet;
#X obj 198 60 inlet;
#X obj 324 131 send \$0-reset;
#X obj 286 106 bng 15 250 50 0 empty empty empty 17 7 0 10 -262144
-1 -1;
#X obj 321 68 loadbang;
#X obj 72 28 f \$1;
#X obj 167 28 f \$2;
#X obj 116 -10 receive \$0-reset;
#X connect 0 0 1 0;
#X connect 1 0 2 0;
#X connect 2 0 3 1;
#X connect 3 0 5 0;
#X connect 4 0 3 0;
#X connect 6 1 0 0;
#X connect 6 2 1 1;
#X connect 7 0 6 0;
#X connect 8 0 6 1;
#X connect 10 0 9 0;
#X connect 11 0 10 0;
#X connect 12 0 6 0;
#X connect 13 0 6 1;
#X connect 14 0 12 0;
#X connect 14 0 13 0;
#X coords 0 -1 1 1 210 140 1 100 100;
