#N canvas 412 184 652 524 10;
#X obj 105 125 LFO~;
#X obj 114 244 VFX-FrequencyShifter~;
#X obj 41 69 inlet~;
#X obj 106 332 outlet~;
#X obj 117 71 inlet;
#X obj 204 69 inlet;
#X obj 265 66 inlet;
#X obj 320 106 send \$0-reset;
#X obj 69 39 f \$1;
#X obj 164 39 f \$2;
#X obj 113 1 receive \$0-reset;
#X obj 288 104 bng 15 250 50 0 empty empty empty 17 7 0 10 -262144
-1 -1;
#X obj 333 65 loadbang;
#X obj 257 40 f \$3;
#X connect 0 2 1 2;
#X connect 1 0 3 0;
#X connect 2 0 1 0;
#X connect 4 0 0 0;
#X connect 5 0 0 1;
#X connect 6 0 1 1;
#X connect 8 0 0 0;
#X connect 9 0 0 1;
#X connect 10 0 8 0;
#X connect 10 0 9 0;
#X connect 10 0 13 0;
#X connect 11 0 7 0;
#X connect 12 0 11 0;
#X connect 13 0 1 1;
#X coords 0 -1 1 1 210 220 1 100 100;
