#N canvas 658 151 487 759 10;
#X obj 158 62 loadbang;
#X msg 158 150 open speech.wav;
#X obj 158 181 readsf~;
#X msg 82 150 start;
#X obj 82 121 delay 500;
#X obj 174 218 delwrite~ delayline 1000;
#X obj 158 91 bng 15 250 50 0 empty empty empty 17 7 0 10 -262144 -1
-1;
#X obj 176 264 hsl 128 15 10 1000 1 0 empty empty delay -2 -8 0 10
-262144 -1 -1 0 1;
#X floatatom 173 295 5 0 0 0 - - -;
#X obj 173 326 sig~;
#X obj 173 358 vd~ delayline;
#X obj 158 395 +~;
#X obj 315 373 hsl 128 15 0 1 0 0 empty empty feedback -2 -8 0 10 -262144
-1 -1 0 1;
#X obj 314 424 sig~;
#X floatatom 314 398 5 0 0 0 - - -;
#X obj 299 450 *~;
#X obj 298 476 s~ feedback;
#X obj 102 459 output~;
#X obj 188 460 wsprobe~;
#X obj 224 181 r~ feedback;
#X connect 0 0 6 0;
#X connect 1 0 2 0;
#X connect 2 0 5 0;
#X connect 2 0 11 0;
#X connect 2 1 6 0;
#X connect 3 0 2 0;
#X connect 4 0 3 0;
#X connect 6 0 1 0;
#X connect 6 0 4 0;
#X connect 7 0 8 0;
#X connect 8 0 9 0;
#X connect 9 0 10 0;
#X connect 10 0 11 1;
#X connect 11 0 15 0;
#X connect 11 0 17 0;
#X connect 11 0 17 1;
#X connect 11 0 18 0;
#X connect 12 0 14 0;
#X connect 13 0 15 1;
#X connect 14 0 13 0;
#X connect 15 0 16 0;
#X connect 19 0 5 0;
