#N canvas 1106 57 554 918 10;
#X obj 159 62 loadbang;
#X msg 158 150 open speech.wav;
#X obj 158 181 readsf~;
#X msg 82 150 start;
#X obj 82 121 delay 500;
#X obj 174 218 delwrite~ delayline 1000;
#X obj 158 91 bng 15 250 50 0 empty empty empty 17 7 0 10 -262144 -1
-1;
#X obj 176 264 hsl 128 15 10 1000 1 0 empty empty delay -2 -8 0 10
-262144 -1 -1 1300 1;
#X floatatom 173 295 5 0 0 0 - - -;
#X obj 172 331 sig~;
#X obj 171 444 vd~ delayline;
#X obj 124 589 output~;
#X obj 218 295 LFO~;
#X obj 171 414 +~;
#X obj 197 588 wsprobe~;
#X obj 277 447 wsprobe~;
#X obj 154 489 mix~ 0.5;
#X connect 0 0 6 0;
#X connect 1 0 2 0;
#X connect 2 0 5 0;
#X connect 2 0 16 0;
#X connect 2 1 6 0;
#X connect 3 0 2 0;
#X connect 4 0 3 0;
#X connect 6 0 1 0;
#X connect 6 0 4 0;
#X connect 7 0 8 0;
#X connect 8 0 9 0;
#X connect 9 0 13 0;
#X connect 10 0 15 0;
#X connect 10 0 16 1;
#X connect 12 2 13 1;
#X connect 13 0 10 0;
#X connect 16 0 11 0;
#X connect 16 0 11 1;
#X connect 16 0 14 0;
