#N canvas 676 174 578 655 10;
#X obj 104 77 delwrite~ delayline 1000;
#X obj 106 141 hsl 128 15 10 1000 1 0 empty empty DELAY -2 -8 0 10
-262144 -1 -1 1912 1;
#X obj 103 200 sig~;
#X obj 103 232 vd~ delayline;
#X obj 88 269 +~;
#X obj 260 105 bng 15 250 50 0 empty empty RESET -12 25 0 10 -262144
-1 -1;
#X obj 179 34 inlet;
#X obj 264 68 loadbang;
#X obj 84 38 inlet~;
#X obj 88 301 outlet~;
#X floatatom 243 140 5 0 0 0 - - -;
#X obj 13 110 f \$1;
#X obj -29 83 receive \$0-reset;
#X obj 290 101 send \$0-reset;
#X connect 1 0 10 0;
#X connect 2 0 3 0;
#X connect 3 0 4 1;
#X connect 4 0 9 0;
#X connect 5 0 13 0;
#X connect 6 0 10 0;
#X connect 7 0 5 0;
#X connect 8 0 0 0;
#X connect 8 0 4 0;
#X connect 10 0 2 0;
#X connect 11 0 10 0;
#X connect 12 0 11 0;
#X coords 0 -1 1 1 180 60 1 100 100;
