#N canvas 537 142 599 766 10;
#X obj 71 235 delwrite~ delayline 1000;
#X obj 107 135 hsl 128 15 10 1000 1 0 empty empty DELAY -2 -8 0 10
-262144 -1 -1 0 1;
#X obj 213 302 sig~;
#X obj 213 334 vd~ delayline;
#X obj 59 375 +~;
#X obj 107 170 hsl 128 15 0 1 0 0 empty empty FEEDBACK -2 -8 0 10 -262144
-1 -1 6350 1;
#X obj 314 336 sig~;
#X obj 123 401 *~;
#X obj 122 427 s~ feedback;
#X obj 112 202 r~ feedback;
#X obj 59 448 outlet~;
#X obj 260 104 bng 15 250 50 0 empty empty RESET -12 25 0 10 -262144
-1 -1;
#X obj 300 62 inlet;
#X obj 313 89 loadbang;
#X obj 61 99 f \$1;
#X obj 58 133 f \$2;
#X obj -12 69 receive \$0-reset;
#X obj 293 119 send \$0-reset;
#X floatatom 243 135 5 0 0 0 - - -;
#X floatatom 242 170 5 0 1 0 - - -;
#X obj 16 -16 inlet~;
#X obj 16 16 send~ 0$-signal;
#X obj -12 204 receive~ 0$-signal;
#X obj 131 -17 inlet;
#X obj 197 -17 inlet;
#X connect 1 0 18 0;
#X connect 2 0 3 0;
#X connect 3 0 4 1;
#X connect 4 0 7 0;
#X connect 4 0 10 0;
#X connect 5 0 19 0;
#X connect 6 0 7 1;
#X connect 7 0 8 0;
#X connect 9 0 0 0;
#X connect 11 0 17 0;
#X connect 12 0 11 0;
#X connect 13 0 11 0;
#X connect 14 0 1 0;
#X connect 15 0 5 0;
#X connect 16 0 14 0;
#X connect 16 0 15 0;
#X connect 18 0 2 0;
#X connect 19 0 6 0;
#X connect 20 0 21 0;
#X connect 22 0 0 0;
#X connect 22 0 4 0;
#X connect 23 0 18 0;
#X connect 24 0 19 0;
#X coords 0 -1 1 1 180 90 1 100 100;
