#N canvas 288 23 1199 940 10;
#X obj 49 29 inlet~;
#X obj 998 721 outlet~;
#X obj 500 124 VFX-BandpassFilter 5000 50;
#X obj 309 124 VFX-HighpassFilter 5000;
#X obj 118 123 VFX-LowpassFilter 5000;
#X obj 121 271 GraphicEqualiser~;
#X obj 513 235 MixHoriz~;
#X obj 750 123 VFX-Tremolo 25 0.5;
#X obj 947 123 MixVert~;
#X obj 668 271 MixVert~;
#X obj 947 294 MixVert~;
#X obj 133 203 MixHoriz~;
#X obj 315 204 MixHoriz~;
#X obj 132 522 MixHoriz~;
#X obj 751 294 VFX-RingModulator 50 0.5;
#X obj 308 447 VFX-Vibrato 50 0.5 500;
#X obj 504 447 MixVert~;
#X obj 120 447 VFX-FrequencyShifter 500;
#X obj 592 542 MixHoriz~;
#X obj 584 478 VFX-Delay 50;
#X obj 966 480 MixVert~;
#X obj 771 479 VFX-Flanger 10 0.4 5;
#X obj 585 576 VFX-Reverberation 10 10;
#X obj 598 672 MixHoriz~;
#X connect 0 0 4 0;
#X connect 0 0 11 0;
#X connect 2 0 6 1;
#X connect 3 0 12 1;
#X connect 4 0 11 1;
#X connect 5 0 9 1;
#X connect 6 0 5 0;
#X connect 6 0 9 0;
#X connect 7 0 8 1;
#X connect 8 0 10 0;
#X connect 8 0 14 0;
#X connect 9 0 8 0;
#X connect 9 0 7 0;
#X connect 10 0 13 0;
#X connect 10 0 17 0;
#X connect 11 0 3 0;
#X connect 11 0 12 0;
#X connect 12 0 2 0;
#X connect 12 0 6 0;
#X connect 13 0 15 0;
#X connect 13 0 16 0;
#X connect 14 0 10 1;
#X connect 15 0 16 1;
#X connect 16 0 18 0;
#X connect 16 0 19 0;
#X connect 17 0 13 1;
#X connect 18 0 20 0;
#X connect 18 0 21 0;
#X connect 19 0 18 1;
#X connect 20 0 22 0;
#X connect 20 0 23 0;
#X connect 21 0 20 1;
#X connect 22 0 23 1;
#X connect 23 0 1 0;
#X coords 0 -1 1 1 913 620 1 100 100;
