#N canvas 0 23 1680 940 10;
#X obj 103 118 InputChooser;
#X obj 104 656 output~;
#X obj 103 175 TimeDomainFilters;
#X obj 174 678 wsprobe~;
#X obj 880 175 TimeDelayEffects;
#X obj 1120 105 bng 15 250 50 0 empty empty empty 17 7 0 10 -262144
-1 -1;
#X text 1084 104 RESET;
#X obj 619 175 AmplitudeModulationEffects;
#X obj 363 175 FrequencyModulationEffects;
#X text 103 507 PRESET EFFECTS;
#X obj 112 527 bng 15 250 50 0 empty empty empty 17 7 0 10 -262144
-1 -1;
#X obj 248 527 bng 15 250 50 0 empty empty empty 17 7 0 10 -262144
-1 -1;
#X text 130 526 TELEPHONE (STEP11);
#X text 267 526 DALEK (STEP18);
#X obj 370 527 bng 15 250 50 0 empty empty empty 17 7 0 10 -262144
-1 -1;
#X text 388 526 ROBOT (STEP 20);
#X obj 495 526 bng 15 250 50 0 empty empty empty 17 7 0 10 -262144
-1 -1;
#X text 513 525 GOLLUM (STEP 23);
#X obj 626 527 bng 15 250 50 0 empty empty empty 17 7 0 10 -262144
-1 -1;
#X obj 112 553 bng 15 250 50 0 empty empty empty 17 7 0 10 -262144
-1 -1;
#X text 644 526 PHASING (STEP 25);
#X text 130 552 REVERBERANT ROOM (STEP 25);
#X obj 304 554 bng 15 250 50 0 empty empty empty 17 7 0 10 -262144
-1 -1;
#X text 322 553 ECHO;
#X obj 371 555 bng 15 250 50 0 empty empty empty 17 7 0 10 -262144
-1 -1;
#X obj 527 555 bng 15 250 50 0 empty empty empty 17 7 0 10 -262144
-1 -1;
#X obj 113 578 bng 15 250 50 0 empty empty empty 17 7 0 10 -262144
-1 -1;
#X text 131 577 LOW PITCHED;
#X obj 224 577 bng 15 250 50 0 empty empty empty 17 7 0 10 -262144
-1 -1;
#X text 242 576 HIGH PITCHED;
#X text 389 554 UNDERWATER (STEP 26);
#X text 545 554 C3PO (STEP 27);
#X connect 0 0 2 0;
#X connect 2 0 8 0;
#X connect 4 0 1 0;
#X connect 4 0 1 1;
#X connect 4 0 3 0;
#X connect 5 0 2 1;
#X connect 5 0 7 1;
#X connect 5 0 4 1;
#X connect 5 0 8 1;
#X connect 7 0 4 0;
#X connect 8 0 7 0;
#X coords 0 -1 1 1 1040 600 1 100 100;
