#N canvas 129 77 864 813 10;
#X obj 155 117 inlet~;
#X obj 351 492 outlet~;
#X obj 386 154 bng 15 250 50 0 empty empty RESET -40 7 0 10 -261234
-1 -1;
#X obj 428 120 loadbang;
#X obj 386 120 inlet;
#X obj 155 176 VFX-Tremolo;
#X obj 155 324 VFX-RingModulator;
#X obj 351 174 Knob~;
#X obj 351 324 Knob~;
#X obj 440 184 r dalek;
#X floatatom 440 268 5 0 0 0 - - -;
#X msg 440 238 30;
#X msg 489 237 1;
#X obj 440 213 t b b;
#X floatatom 489 268 5 0 0 0 - - -;
#X text 155 63 This is a combination of all the amplitude modulating
effects.;
#X text 156 102 SIGNAL;
#X text 386 100 RESET;
#X text 349 513 PROCESSED SIGNAL;
#X connect 0 0 5 0;
#X connect 0 0 7 0;
#X connect 2 0 5 3;
#X connect 2 0 6 3;
#X connect 2 0 7 3;
#X connect 2 0 8 3;
#X connect 3 0 2 0;
#X connect 4 0 2 0;
#X connect 5 0 7 1;
#X connect 6 0 8 1;
#X connect 7 0 6 0;
#X connect 7 0 8 0;
#X connect 8 0 1 0;
#X connect 9 0 13 0;
#X connect 10 0 6 1;
#X connect 11 0 10 0;
#X connect 12 0 14 0;
#X connect 12 0 8 2;
#X connect 13 0 11 0;
#X connect 13 1 12 0;
#X connect 14 0 6 2;
#X coords 0 -1 1 1 255 330 1 150 150;
