#N canvas 809 198 650 613 10;
#X obj 386 68 loadbang;
#X obj 104 69 inlet~;
#X obj 332 68 inlet;
#X obj 298 450 outlet~;
#X obj 332 103 bng 15 250 50 0 empty empty RESET -35 7 0 10 -262144
-1 -1;
#X obj 104 129 VFX-FrequencyShifter;
#X obj 103 206 VFX-Vibrato;
#X obj 298 206 Knob~;
#X obj 298 128 Knob~;
#X floatatom 386 179 5 0 0 0 - - -;
#X floatatom 429 179 5 0 0 0 - - -;
#X obj 386 120 t b b;
#X obj 386 96 r robot;
#X msg 386 150 -50;
#X obj 434 226 r gollum;
#X msg 434 284 50;
#X msg 475 283 350;
#X msg 520 283 1;
#X floatatom 434 321 5 0 0 0 - - -;
#X floatatom 475 321 5 0 0 0 - - -;
#X floatatom 520 321 5 0 0 0 - - -;
#X obj 434 254 t b b b;
#X msg 429 151 0.5;
#X connect 0 0 4 0;
#X connect 1 0 5 0;
#X connect 1 0 8 0;
#X connect 2 0 4 0;
#X connect 4 0 5 3;
#X connect 4 0 6 4;
#X connect 4 0 8 3;
#X connect 4 0 7 3;
#X connect 5 0 8 1;
#X connect 6 0 7 1;
#X connect 7 0 3 0;
#X connect 8 0 6 0;
#X connect 8 0 7 0;
#X connect 9 0 5 1;
#X connect 10 0 8 2;
#X connect 11 0 13 0;
#X connect 11 1 22 0;
#X connect 12 0 11 0;
#X connect 13 0 9 0;
#X connect 14 0 21 0;
#X connect 15 0 18 0;
#X connect 16 0 19 0;
#X connect 17 0 20 0;
#X connect 18 0 6 1;
#X connect 19 0 6 2;
#X connect 20 0 7 2;
#X connect 21 0 15 0;
#X connect 21 1 16 0;
#X connect 21 2 17 0;
#X connect 22 0 10 0;
#X coords 0 -1 1 1 250 330 1 100 100;
