#N canvas 0 22 723 373 10;
#X obj 254 100 bng 15 250 50 0 empty empty empty 17 7 0 10 -262144
-1 -1;
#X obj 240 128 s vfx_reset;
#X obj 161 161 send \$1;
#X obj 160 127 delay 200;
#X text 326 129 <= Used to reset the voice changer effects. Provide
clean slate for the effect;
#X text -72 125 Wait for reset signal to propogate =>;
#X text 19 161 Send name of preset =>;
#X connect 0 0 1 0;
#X connect 0 0 3 0;
#X connect 3 0 2 0;
#X coords 0 -1 1 1 170 15 1 100 100;
