#N canvas 435 80 618 599 10;
#X obj 107 126 VFX-LowpassFilter;
#X obj 107 209 VFX-HighpassFilter;
#X obj 107 291 VFX-BandpassFilter;
#X obj 332 106 bng 15 250 50 0 empty empty empty 17 7 0 10 -262144
-1 -1;
#X text 296 105 RESET;
#X obj 332 76 inlet;
#X obj 100 75 inlet~;
#X obj 300 410 outlet~;
#X obj 297 127 Knob~;
#X obj 378 78 loadbang;
#X msg 377 135 1;
#X obj 299 291 Knob~;
#X obj 298 209 Knob~;
#X floatatom 377 162 5 0 0 0 - - -;
#X obj 376 108 r telephone;
#X connect 0 0 8 1;
#X connect 1 0 12 1;
#X connect 2 0 11 1;
#X connect 3 0 0 2;
#X connect 3 0 1 2;
#X connect 3 0 2 3;
#X connect 3 0 8 3;
#X connect 3 0 12 3;
#X connect 3 0 11 3;
#X connect 5 0 3 0;
#X connect 6 0 0 0;
#X connect 6 0 8 0;
#X connect 8 0 1 0;
#X connect 8 0 12 0;
#X connect 9 0 3 0;
#X connect 10 0 13 0;
#X connect 11 0 7 0;
#X connect 12 0 2 0;
#X connect 12 0 11 0;
#X connect 13 0 8 2;
#X connect 13 0 12 2;
#X connect 14 0 10 0;
#X coords 0 -1 1 1 254 330 1 100 100;
