#N canvas 653 214 991 650 10;
#X obj 316 54 bng 15 250 50 0 empty empty empty -40 7 0 10 -262144
-1 -1;
#X obj 86 22 inlet~;
#X obj 281 495 outlet~;
#X text 281 53 RESET;
#X obj 86 145 VFX-Reverberation;
#X obj 86 78 VFX-Delay;
#X obj 86 242 VFX-Flanger;
#X obj 349 39 loadbang;
#X obj 312 19 inlet;
#X obj 281 78 Knob~;
#X obj 281 144 Knob~;
#X obj 281 241 Knob~;
#X obj 404 80 r phasing;
#X msg 404 130 15;
#X floatatom 503 216 5 0 0 0 - - -;
#X msg 459 131 1;
#X floatatom 556 217 5 0 0 0 - - -;
#X obj 404 102 t b b;
#X obj 502 101 t b b;
#X obj 502 79 r reverberant_room;
#X obj 626 100 t b b;
#X msg 547 130 1;
#X msg 627 130 130;
#X msg 671 128 1;
#X obj 626 78 r echo;
#X msg 503 131 75;
#X obj 382 378 r underwater;
#X floatatom 379 483 5 0 0 0 - - -;
#X floatatom 422 485 5 0 0 0 - - -;
#X msg 381 443 10;
#X msg 469 443 5;
#X floatatom 468 485 5 0 0 0 - - -;
#X msg 512 443 1;
#X floatatom 515 485 5 0 0 0 - - -;
#X obj 381 411 t b b b b;
#X obj 405 231 r c3p0;
#X obj 405 261 t b b b;
#X floatatom 405 322 5 0 0 0 - - -;
#X floatatom 453 321 5 0 0 0 - - -;
#X floatatom 502 320 5 0 0 0 - - -;
#X msg 503 290 0.9;
#X msg 453 291 0.9;
#X msg 405 292 10;
#X msg 422 443 0.4;
#X text 84 2 SIGNAL;
#X text 313 1 RESET;
#X text 281 516 PROCESSED SIGNAL;
#X text 66 -37 This is a combination of all effects that are time delay-based.
;
#X connect 0 0 4 3;
#X connect 0 0 5 3;
#X connect 0 0 6 4;
#X connect 0 0 9 3;
#X connect 0 0 10 3;
#X connect 0 0 11 3;
#X connect 1 0 5 0;
#X connect 1 0 9 0;
#X connect 4 0 10 1;
#X connect 5 0 9 1;
#X connect 6 0 11 1;
#X connect 7 0 0 0;
#X connect 8 0 0 0;
#X connect 9 0 4 0;
#X connect 9 0 10 0;
#X connect 10 0 6 0;
#X connect 10 0 11 0;
#X connect 11 0 2 0;
#X connect 12 0 17 0;
#X connect 13 0 14 0;
#X connect 14 0 5 1;
#X connect 15 0 16 0;
#X connect 16 0 9 2;
#X connect 17 0 13 0;
#X connect 17 1 15 0;
#X connect 18 0 25 0;
#X connect 18 1 21 0;
#X connect 19 0 18 0;
#X connect 20 0 22 0;
#X connect 20 1 23 0;
#X connect 21 0 16 0;
#X connect 22 0 14 0;
#X connect 23 0 16 0;
#X connect 24 0 20 0;
#X connect 25 0 14 0;
#X connect 26 0 34 0;
#X connect 27 0 6 1;
#X connect 28 0 6 2;
#X connect 29 0 27 0;
#X connect 30 0 31 0;
#X connect 31 0 6 3;
#X connect 32 0 33 0;
#X connect 33 0 11 2;
#X connect 34 0 29 0;
#X connect 34 1 43 0;
#X connect 34 2 30 0;
#X connect 34 3 32 0;
#X connect 35 0 36 0;
#X connect 36 0 42 0;
#X connect 36 1 41 0;
#X connect 36 2 40 0;
#X connect 37 0 4 1;
#X connect 38 0 4 2;
#X connect 39 0 10 2;
#X connect 40 0 39 0;
#X connect 41 0 38 0;
#X connect 42 0 37 0;
#X connect 43 0 28 0;
#X coords 0 -1 1 1 255 420 1 80 50;
