#N canvas 585 273 451 529 10;
#X obj 108 154 hsl 128 15 0 10000 0 0 empty empty CUT-OFF_FREQUENCY
10 8 0 10 -262144 -1 -1 0 1;
#X obj 87 65 inlet~;
#X obj 85 218 outlet~;
#X obj 264 105 bng 15 250 50 0 empty empty RESET -12 25 0 10 -262144
-1 -1;
#X obj 56 128 f \$1;
#X obj 295 87 loadbang;
#X floatatom 245 155 5 0 0 0 - - -;
#X text 103 137 0Hz;
#X text 196 137 10000Hz;
#X obj 86 187 lop~;
#X obj 174 65 inlet;
#X obj 255 65 inlet;
#X text 254 47 RESET;
#X text 172 46 CUTOFF;
#X text 84 46 SIGNAL;
#X text 87 235 SIGNAL;
#X obj 362 87 r telephone;
#X msg 330 125 3400;
#X connect 0 0 6 0;
#X connect 1 0 9 0;
#X connect 3 0 4 0;
#X connect 4 0 0 0;
#X connect 5 0 3 0;
#X connect 6 0 9 1;
#X connect 9 0 2 0;
#X connect 10 0 6 0;
#X connect 11 0 3 0;
#X connect 16 0 17 0;
#X connect 17 0 0 0;
#X coords 0 -1 1 1 185 75 1 100 100;
