#N canvas 537 142 599 766 10;
#X obj 107 135 hsl 128 15 1 1000 1 0 empty empty DELAY -2 -8 0 10 -262144
-1 -1 0 1;
#X obj 96 219 sig~;
#X obj 36 296 +~;
#X obj 107 170 hsl 128 15 0 1 0 0 empty empty FEEDBACK -2 -8 0 10 -262144
-1 -1 0 1;
#X obj 196 292 sig~;
#X obj 87 343 *~;
#X obj 34 414 outlet~;
#X obj 260 104 bng 15 250 50 0 empty empty RESET -12 25 0 10 -262144
-1 -1;
#X obj 458 1 inlet;
#X obj 357 86 loadbang;
#X obj 56 100 f \$1;
#X obj 55 144 f \$2;
#X floatatom 243 135 5 0 0 0 - - -;
#X floatatom 242 170 5 0 1 0 - - -;
#X obj 37 2 inlet~;
#X obj 300 1 inlet;
#X obj 376 0 inlet;
#X obj 82 27 r~ \$0-feedback;
#X obj 61 71 delwrite~ \$0-delayline 1000;
#X obj 96 247 vd~ \$0-delayline;
#X obj 87 370 s~ \$0-feedback;
#X text 38 -16 SIGNAL;
#X text 299 -16 DELAY;
#X text 374 -18 FEEDBACK;
#X text 454 -16 RESET;
#X text 86 416 OUTPUT SIGNAL;
#X connect 0 0 12 0;
#X connect 1 0 19 0;
#X connect 2 0 5 0;
#X connect 2 0 6 0;
#X connect 3 0 13 0;
#X connect 4 0 5 1;
#X connect 5 0 20 0;
#X connect 7 0 10 0;
#X connect 7 0 11 0;
#X connect 8 0 7 0;
#X connect 9 0 7 0;
#X connect 10 0 0 0;
#X connect 11 0 3 0;
#X connect 12 0 1 0;
#X connect 13 0 4 0;
#X connect 14 0 2 0;
#X connect 14 0 18 0;
#X connect 15 0 12 0;
#X connect 16 0 13 0;
#X connect 17 0 18 0;
#X connect 19 0 2 1;
#X coords 0 -1 1 1 180 90 1 100 100;
