#N canvas 1021 143 578 655 10;
#X obj 106 141 hsl 128 15 1 1000 1 0 empty empty DELAY -2 -8 0 10 -204800
-1 -1 0 1;
#X obj 103 167 sig~;
#X obj 88 269 +~;
#X obj 260 105 bng 15 250 50 0 empty empty RESET -12 25 0 10 -261234
-1 -1;
#X obj 159 34 inlet;
#X obj 305 88 loadbang;
#X obj 84 38 inlet~;
#X obj 88 301 outlet~;
#X floatatom 243 140 5 0 0 0 - - -;
#X obj 60 122 f \$1;
#X text 76 17 SIGNAL;
#X text 156 16 DELAY;
#X obj 318 29 inlet;
#X text 316 13 RESET;
#X obj 236 39 inlet~;
#X obj 123 195 +~;
#X text 233 19 DELAY SIGNAL;
#X obj 104 77 delwrite~ \$0-delayline 1000;
#X obj 103 232 vd~ \$0-delayline;
#X connect 0 0 8 0;
#X connect 1 0 15 0;
#X connect 2 0 7 0;
#X connect 3 0 9 0;
#X connect 4 0 8 0;
#X connect 5 0 3 0;
#X connect 6 0 2 0;
#X connect 6 0 17 0;
#X connect 8 0 1 0;
#X connect 9 0 0 0;
#X connect 12 0 3 0;
#X connect 14 0 15 1;
#X connect 15 0 18 0;
#X connect 18 0 2 1;
#X coords 0 -1 1 1 180 60 1 100 100;
