#N canvas 0 23 583 651 10;
#X obj 10 613 cnv 15 552 21 empty \$0-pddp.cnv.footer empty 20 12 0
14 -228856 -66577 0;
#X obj 10 10 cnv 15 552 40 empty \$0-pddp.cnv.header VFX-FrequencyShifter
3 12 0 18 -204280 -1 0;
#X obj 10 301 cnv 3 550 3 empty \$0-pddp.cnv.inlets inlets 8 12 0 13
-228856 -1 0;
#X obj 10 420 cnv 3 550 3 empty \$0-pddp.cnv.outlets outlets 8 12 0
13 -228856 -1 0;
#X obj 10 544 cnv 3 550 3 empty \$0-pddp.cnv.argument arguments 8 12
0 13 -228856 -1 0;
#X obj 88 310 cnv 17 3 100 empty \$0-pddp.cnv.let.0 0 5 9 0 16 -228856
-162280 0;
#X obj 88 429 cnv 17 3 100 empty \$0-pddp.cnv.let.0 0 5 9 0 16 -228856
-162280 0;
#X obj 341 64 bng 15 250 50 0 empty empty empty 17 7 0 10 -262144 -1
-1;
#X obj 169 200 output~;
#X obj 88 333 cnv 17 3 1 empty \$0-pddp.cnv.let.0 1 5 9 0 16 -228856
-162280 0;
#X text 108 332 float;
#X obj 88 356 cnv 17 3 1 empty \$0-pddp.cnv.let.0 2 5 9 0 16 -228856
-162280 0;
#X text 178 428 - The output signal frequency;
#X text 88 568 1) float;
#X obj 168 67 osc~ 400;
#X floatatom 225 66 5 0 0 0 - - -;
#X obj 283 64 osc~ 0;
#X text 108 309 signal;
#X text 108 353 signal;
#X text 108 379 signal;
#X obj 89 382 cnv 17 3 1 empty \$0-pddp.cnv.let.0 3 5 9 0 16 -228856
-162280 0;
#X text 179 380 - Resets to creation arguments or default values.;
#X text 178 308 - Original signal to be processed.;
#X text 108 428 signal;
#X text 108 548;
#X text 158 618;
#X text 21 34 frequency shifter voice effect;
#X obj 168 108 VFX-FrequencyShifter;
#X text 211 243 VFX-FrequencyShifter is an effect that produces a frequency
shifted version of the given signal. It's shifting can be controlled
by a signal. This is a type of frequency modulation;
#X text 178 353 - Applies signal to the frequency shifting.;
#X text 158 568 - The default frequency shifting (in Hz);
#X text 178 332 - Sets Frequency shifting (Slider: -1000Hz to +1000Hz).
;
#X connect 7 0 27 3;
#X connect 14 0 27 0;
#X connect 15 0 27 1;
#X connect 16 0 27 2;
#X connect 27 0 8 0;
#X connect 27 0 8 1;
