#N canvas 410 156 553 656 10;
#X obj 106 246 sig~;
#X obj 106 269 +~;
#X obj 106 303 *~ 0.5;
#X obj 91 340 *~;
#X obj 90 76 inlet~;
#X obj 91 379 outlet~;
#X obj 146 75 inlet;
#X obj 205 76 inlet;
#X obj 274 106 bng 15 250 50 0 empty empty RESET -35 7 0 10 -262144
-1 -1;
#X obj 338 90 loadbang;
#X obj 105 127 LFO~ \$1 \$2;
#X obj 264 278 wsprobe~;
#X text 92 57 SIGNAL;
#X text 147 56 SPEED;
#X text 204 59 DEPTH;
#X obj 274 73 inlet;
#X text 270 54 RESET;
#X connect 0 0 1 0;
#X connect 1 0 2 0;
#X connect 2 0 3 1;
#X connect 3 0 5 0;
#X connect 4 0 3 0;
#X connect 6 0 10 0;
#X connect 7 0 10 1;
#X connect 8 0 10 2;
#X connect 9 0 8 0;
#X connect 10 1 0 0;
#X connect 10 2 1 1;
#X connect 10 2 11 0;
#X connect 15 0 8 0;
#X coords 0 -1 1 1 191 140 1 100 100;
