#N canvas 0 23 1680 940 10;
#X obj 103 118 InputChooser;
#X obj 103 175 TimeDomainFilters;
#X obj 880 175 TimeDelayEffects;
#X obj 1120 105 bng 15 250 50 0 empty empty empty 17 7 0 10 -262144
-1 -1;
#X text 1084 104 RESET;
#X obj 619 175 AmplitudeModulationEffects;
#X obj 363 175 FrequencyModulationEffects;
#X obj 1171 88 r vfx_reset;
#X obj 880 856 outlet~;
#X obj 105 542 Preset phasing;
#X obj 287 542 Preset reverberant_room;
#X obj 473 542 Preset echo;
#X obj 106 563 Preset underwater;
#X obj 106 520 Preset c3p0;
#X obj 288 520 Preset dalek;
#X obj 287 563 Preset gollum;
#X obj 474 520 Preset robot;
#X obj 700 510 cnv 15 1 1 empty empty MASTER_VOLUME 20 12 0 14 -233017
-66577 0;
#X obj 744 540 knob 50 50 0 1 0 0 empty empty empty 0 -8 0 8 -262144
-1 -1 4900 1;
#X floatatom 743 613 5 0 0 0 - - -;
#X obj 819 735 hip~ 3;
#X obj 742 732 line~;
#X obj 742 795 *~;
#X obj 763 836 dac~;
#X obj 804 794 *~;
#X obj 742 711 pack 0 50;
#X msg 742 676 0;
#X obj 742 653 moses 0.011;
#X text 776 789 comment;
#X obj 942 773 wsprobe~;
#X connect 0 0 1 0;
#X connect 1 0 6 0;
#X connect 2 0 8 0;
#X connect 2 0 20 0;
#X connect 2 0 29 0;
#X connect 3 0 1 1;
#X connect 3 0 5 1;
#X connect 3 0 2 1;
#X connect 3 0 6 1;
#X connect 5 0 2 0;
#X connect 6 0 5 0;
#X connect 7 0 3 0;
#X connect 18 0 19 0;
#X connect 19 0 27 0;
#X connect 20 0 22 1;
#X connect 20 0 24 1;
#X connect 21 0 24 0;
#X connect 21 0 22 0;
#X connect 22 0 23 0;
#X connect 24 0 23 1;
#X connect 25 0 21 0;
#X connect 26 0 25 0;
#X connect 27 0 26 0;
#X connect 27 1 25 0;
#X coords 0 -1 1 1 1040 500 1 100 100;
