#N canvas 0 23 1680 940 10;
#X obj 103 118 InputChooser;
#X obj 103 175 TimeDomainFilters;
#X obj 880 175 TimeDelayEffects;
#X obj 1120 105 bng 15 250 50 0 empty empty empty 17 7 0 10 -262144
-1 -1;
#X text 1084 104 RESET;
#X obj 619 175 AmplitudeModulationEffects;
#X obj 363 175 FrequencyModulationEffects;
#X obj 1171 88 r vfx_reset;
#X obj 881 625 outlet~;
#X obj 105 549 Preset phasing;
#X obj 287 549 Preset reverberant_room;
#X obj 473 549 Preset echo;
#X obj 659 549 Preset underwater;
#X obj 106 520 Preset c3p0;
#X obj 288 520 Preset dalek;
#X obj 660 520 Preset gollum;
#X obj 474 520 Preset robot;
#X connect 0 0 1 0;
#X connect 1 0 6 0;
#X connect 2 0 8 0;
#X connect 3 0 1 1;
#X connect 3 0 5 1;
#X connect 3 0 2 1;
#X connect 3 0 6 1;
#X connect 5 0 2 0;
#X connect 6 0 5 0;
#X connect 7 0 3 0;
#X coords 0 -1 1 1 1040 500 1 100 100;
